<mxfile host="app.diagrams.net" agent="Mozilla/5.0 (Windows NT 10.0; Win64; x64) AppleWebKit/537.36 (KHTML, like Gecko) Chrome/135.0.0.0 Safari/537.36" version="26.2.9">
  <diagram name="Page-1" id="On5OyJaGVxLBlouR5h3Z">
    <mxGraphModel dx="1044" dy="562" grid="1" gridSize="10" guides="1" tooltips="1" connect="1" arrows="1" fold="1" page="1" pageScale="1" pageWidth="850" pageHeight="1100" math="0" shadow="0">
      <root>
        <mxCell id="0" />
        <mxCell id="1" parent="0" />
        <mxCell id="Jb0UgCJqrkprumq1bkhl-1" value="&lt;div style=&quot;color: rgb(204, 204, 204); background-color: rgb(31, 31, 31); font-family: Consolas, &amp;quot;Courier New&amp;quot;, monospace; font-weight: normal; line-height: 19px; white-space: pre;&quot;&gt;&lt;div&gt;&lt;span style=&quot;color: #6a9955;&quot;&gt;// Factorial &lt;/span&gt;&lt;/div&gt;&lt;div&gt;&lt;span style=&quot;color: #6a9955;&quot;&gt;// Step 1: Start&lt;/span&gt;&lt;/div&gt;&lt;div&gt;&lt;span style=&quot;color: #6a9955;&quot;&gt;// Step 2: Initialize variables&lt;/span&gt;&lt;/div&gt;&lt;div&gt;&lt;span style=&quot;color: #6a9955;&quot;&gt;// Step 3: Initialize a variable i with n&lt;/span&gt;&lt;/div&gt;&lt;div&gt;&lt;span style=&quot;color: #6a9955;&quot;&gt;// Step 4: Check the condition(i&amp;gt;=1)&lt;/span&gt;&lt;/div&gt;&lt;div&gt;&lt;span style=&quot;color: #6a9955;&quot;&gt;// Step 5: If the condition is true,then go to step 6 otherwise go to step 9&lt;/span&gt;&lt;/div&gt;&lt;div&gt;&lt;span style=&quot;color: #6a9955;&quot;&gt;// Step 6: fact = fact * i&lt;/span&gt;&lt;/div&gt;&lt;div&gt;&lt;span style=&quot;color: #6a9955;&quot;&gt;// Step 7: Decrement i by 1&lt;/span&gt;&lt;/div&gt;&lt;div&gt;&lt;span style=&quot;color: #6a9955;&quot;&gt;// Step 8: Go to step 4&lt;/span&gt;&lt;/div&gt;&lt;div&gt;&lt;span style=&quot;color: #6a9955;&quot;&gt;// Step 9: Print value of fact&lt;/span&gt;&lt;/div&gt;&lt;div&gt;&lt;span style=&quot;color: #6a9955;&quot;&gt;// Step 10: End&lt;/span&gt;&lt;/div&gt;&lt;/div&gt;" style="text;whiteSpace=wrap;html=1;fontSize=14;" vertex="1" parent="1">
          <mxGeometry x="40" y="30" width="560" height="230" as="geometry" />
        </mxCell>
        <mxCell id="Jb0UgCJqrkprumq1bkhl-5" value="" style="edgeStyle=orthogonalEdgeStyle;rounded=0;orthogonalLoop=1;jettySize=auto;html=1;fontSize=14;" edge="1" parent="1" source="Jb0UgCJqrkprumq1bkhl-2" target="Jb0UgCJqrkprumq1bkhl-4">
          <mxGeometry relative="1" as="geometry" />
        </mxCell>
        <mxCell id="Jb0UgCJqrkprumq1bkhl-2" value="Start" style="strokeWidth=2;html=1;shape=mxgraph.flowchart.start_1;whiteSpace=wrap;fontSize=14;" vertex="1" parent="1">
          <mxGeometry x="375" y="320" width="100" height="60" as="geometry" />
        </mxCell>
        <mxCell id="Jb0UgCJqrkprumq1bkhl-3" value="End" style="strokeWidth=2;html=1;shape=mxgraph.flowchart.start_1;whiteSpace=wrap;fontSize=14;" vertex="1" parent="1">
          <mxGeometry x="370" y="1130" width="100" height="60" as="geometry" />
        </mxCell>
        <mxCell id="Jb0UgCJqrkprumq1bkhl-7" value="" style="edgeStyle=orthogonalEdgeStyle;rounded=0;orthogonalLoop=1;jettySize=auto;html=1;fontSize=14;" edge="1" parent="1" source="Jb0UgCJqrkprumq1bkhl-4" target="Jb0UgCJqrkprumq1bkhl-6">
          <mxGeometry relative="1" as="geometry" />
        </mxCell>
        <mxCell id="Jb0UgCJqrkprumq1bkhl-4" value="int n, i, fact = 1" style="whiteSpace=wrap;html=1;strokeWidth=2;fontSize=14;" vertex="1" parent="1">
          <mxGeometry x="365" y="430" width="120" height="60" as="geometry" />
        </mxCell>
        <mxCell id="Jb0UgCJqrkprumq1bkhl-9" value="" style="edgeStyle=orthogonalEdgeStyle;rounded=0;orthogonalLoop=1;jettySize=auto;html=1;fontSize=14;" edge="1" parent="1" source="Jb0UgCJqrkprumq1bkhl-6" target="Jb0UgCJqrkprumq1bkhl-8">
          <mxGeometry relative="1" as="geometry" />
        </mxCell>
        <mxCell id="Jb0UgCJqrkprumq1bkhl-6" value="Enter n" style="shape=parallelogram;perimeter=parallelogramPerimeter;whiteSpace=wrap;html=1;fixedSize=1;strokeWidth=2;fontSize=14;" vertex="1" parent="1">
          <mxGeometry x="365" y="540" width="120" height="60" as="geometry" />
        </mxCell>
        <mxCell id="Jb0UgCJqrkprumq1bkhl-11" value="" style="edgeStyle=orthogonalEdgeStyle;rounded=0;orthogonalLoop=1;jettySize=auto;html=1;fontSize=14;" edge="1" parent="1" source="Jb0UgCJqrkprumq1bkhl-8" target="Jb0UgCJqrkprumq1bkhl-10">
          <mxGeometry relative="1" as="geometry" />
        </mxCell>
        <mxCell id="Jb0UgCJqrkprumq1bkhl-8" value="i = n" style="whiteSpace=wrap;html=1;strokeWidth=2;fontSize=14;" vertex="1" parent="1">
          <mxGeometry x="365" y="650" width="120" height="60" as="geometry" />
        </mxCell>
        <mxCell id="Jb0UgCJqrkprumq1bkhl-13" value="" style="edgeStyle=orthogonalEdgeStyle;rounded=0;orthogonalLoop=1;jettySize=auto;html=1;fontSize=14;" edge="1" parent="1" source="Jb0UgCJqrkprumq1bkhl-10" target="Jb0UgCJqrkprumq1bkhl-12">
          <mxGeometry relative="1" as="geometry" />
        </mxCell>
        <mxCell id="Jb0UgCJqrkprumq1bkhl-21" value="True" style="edgeLabel;html=1;align=center;verticalAlign=middle;resizable=0;points=[];fontSize=14;" vertex="1" connectable="0" parent="Jb0UgCJqrkprumq1bkhl-13">
          <mxGeometry x="-0.12" y="-1" relative="1" as="geometry">
            <mxPoint as="offset" />
          </mxGeometry>
        </mxCell>
        <mxCell id="Jb0UgCJqrkprumq1bkhl-15" value="" style="edgeStyle=orthogonalEdgeStyle;rounded=0;orthogonalLoop=1;jettySize=auto;html=1;fontSize=14;" edge="1" parent="1" source="Jb0UgCJqrkprumq1bkhl-10" target="Jb0UgCJqrkprumq1bkhl-14">
          <mxGeometry relative="1" as="geometry" />
        </mxCell>
        <mxCell id="Jb0UgCJqrkprumq1bkhl-22" value="False" style="edgeLabel;html=1;align=center;verticalAlign=middle;resizable=0;points=[];fontSize=14;" vertex="1" connectable="0" parent="Jb0UgCJqrkprumq1bkhl-15">
          <mxGeometry x="-0.4138" y="3" relative="1" as="geometry">
            <mxPoint as="offset" />
          </mxGeometry>
        </mxCell>
        <mxCell id="Jb0UgCJqrkprumq1bkhl-10" value="i &amp;gt;= 1" style="rhombus;whiteSpace=wrap;html=1;strokeWidth=2;fontSize=14;" vertex="1" parent="1">
          <mxGeometry x="370" y="760" width="110" height="80" as="geometry" />
        </mxCell>
        <mxCell id="Jb0UgCJqrkprumq1bkhl-20" value="" style="edgeStyle=orthogonalEdgeStyle;rounded=0;orthogonalLoop=1;jettySize=auto;html=1;entryX=0;entryY=0.5;entryDx=0;entryDy=0;fontSize=14;" edge="1" parent="1" source="Jb0UgCJqrkprumq1bkhl-12" target="Jb0UgCJqrkprumq1bkhl-10">
          <mxGeometry relative="1" as="geometry">
            <mxPoint x="220" y="800" as="targetPoint" />
            <Array as="points">
              <mxPoint x="180" y="930" />
              <mxPoint x="180" y="800" />
            </Array>
          </mxGeometry>
        </mxCell>
        <mxCell id="Jb0UgCJqrkprumq1bkhl-12" value="fact = fact * i&lt;div&gt;i--&lt;/div&gt;" style="whiteSpace=wrap;html=1;strokeWidth=2;fontSize=14;" vertex="1" parent="1">
          <mxGeometry x="365" y="900" width="120" height="60" as="geometry" />
        </mxCell>
        <mxCell id="Jb0UgCJqrkprumq1bkhl-17" value="" style="edgeStyle=orthogonalEdgeStyle;rounded=0;orthogonalLoop=1;jettySize=auto;html=1;fontSize=14;" edge="1" parent="1" source="Jb0UgCJqrkprumq1bkhl-14" target="Jb0UgCJqrkprumq1bkhl-16">
          <mxGeometry relative="1" as="geometry">
            <Array as="points">
              <mxPoint x="660" y="1050" />
            </Array>
          </mxGeometry>
        </mxCell>
        <mxCell id="Jb0UgCJqrkprumq1bkhl-14" value="Print fact" style="shape=parallelogram;perimeter=parallelogramPerimeter;whiteSpace=wrap;html=1;fixedSize=1;strokeWidth=2;fontSize=14;" vertex="1" parent="1">
          <mxGeometry x="600" y="880" width="120" height="60" as="geometry" />
        </mxCell>
        <mxCell id="Jb0UgCJqrkprumq1bkhl-18" value="" style="edgeStyle=orthogonalEdgeStyle;rounded=0;orthogonalLoop=1;jettySize=auto;html=1;fontSize=14;" edge="1" parent="1" source="Jb0UgCJqrkprumq1bkhl-16" target="Jb0UgCJqrkprumq1bkhl-3">
          <mxGeometry relative="1" as="geometry" />
        </mxCell>
        <mxCell id="Jb0UgCJqrkprumq1bkhl-16" value="" style="ellipse;whiteSpace=wrap;html=1;strokeWidth=2;fontSize=14;" vertex="1" parent="1">
          <mxGeometry x="380" y="1010" width="80" height="80" as="geometry" />
        </mxCell>
      </root>
    </mxGraphModel>
  </diagram>
</mxfile>
